<?xml version="1.0" encoding="UTF-8"?>
<svg id="Laag_1" data-name="Laag 1" xmlns="http://www.w3.org/2000/svg" viewBox="0 0 435 228.67">
  <defs>
    <style>
      .cls-1 {
        fill: none;
      }

      .cls-1, .cls-2, .cls-3, .cls-4, .cls-5 {
        stroke: #20201d;
        stroke-miterlimit: 10;
        stroke-width: 3px;
      }

      .cls-6 {
        fill: #010100;
        font-family: ToppanBunkyuGothicPr6N-DB-83pv-RKSJ-H, 'Toppan Bunkyu Gothic';
        font-size: 36px;
      }

      .cls-6, .cls-7 {
        isolation: isolate;
      }

      .cls-2 {
        fill: #c7c7c7;
      }

      .cls-3 {
        fill: #fff;
      }

      .cls-4 {
        fill: #e8e8e8;
      }

      .cls-5 {
        fill: #694106;
      }
    </style>
  </defs>
  <polyline class="cls-5" points="9.06 30.59 1.5 34.15 1.5 218.59 1.5 227.04 221.33 209.26 433.5 227.04 433.5 218.59 433.5 30.59 426.21 30.59"/>
  <path class="cls-2" d="m355.9,23.24h-.02l-27-2.83h-.01l-29.47-3.08-10.26-1.07-38.69-4.05h0l-5.68-.59h-.02l-2.06-.22-11.48-1.2-8.15-.85-.83-.09-4.88.49-7.37.74h0l-4.23.42-8.93.89h-.02l-4.75.48h0l-46.15,4.62h-.02l-11.57,1.16h0l-29.56,2.96-29.08,2.91h-.01L9.06,30.59v188l213.05-20,19,1.86,185.1,18.14V30.59l-70.31-7.35h0Zm-154.24,160.03c-34.92-10.46-104.53.78-174.31,26.01v-4.6c28.07-8.82,132.26-41.99,174.49-29.19,6.18,1.87,11.04,4.73,14.13,8.79,1.6,2.1,3.52,4.61,4.59,7.62,0,.12,0,.24,0,.37v-.34c.46,1.31.77,2.71.81,4.21-3.76-5.88-10.54-10.13-19.72-12.87h0Zm206.74,31.57c-7.46-2.88-15.64-4.99-23.91-8.12-56.64-21.42-113.15-31.35-143.24-23.62-9.01,2.31-15.65,6.2-19.21,11.84.23-4.41,1.6-7.88,3.61-10.66,3.31-4.56,8.72-7.61,15.67-9.44,43.46-11.49,146.79,24.31,167.08,30.9v9.1h0Z"/>
  <path class="cls-4" d="m408.4,205.74v9.1c-7.46-2.88-15.64-4.99-23.91-8.12-56.64-21.42-113.15-31.35-143.24-23.62-9.01,2.31-15.65,6.2-19.21,11.84.23-4.41,1.6-7.88,3.61-10.66,3.31-4.56,8.72-7.61,15.67-9.44,43.46-11.49,146.79,24.31,167.08,30.9h0Z"/>
  <line class="cls-1" x1="241.25" y1="183.1" x2="241.11" y2="200.45"/>
  <polyline class="cls-1" points="241.32 174.84 241.36 170.94 241.39 166.61 241.44 161.05 242.67 12.77 242.68 11.84 242.68 11.4"/>
  <line class="cls-1" x1="201.66" y1="183.27" x2="201.25" y2="200.45"/>
  <polyline class="cls-1" points="201.84 175.49 201.92 171.91 202.03 167.59 202.15 162.32 205.65 14.14 205.67 13.42 205.73 10.91 205.73 10.81"/>
  <g>
    <path class="cls-1" d="m222.04,194.94s-.04.06-.06.08c-.21.34-.4.68-.59,1.02"/>
    <polyline class="cls-1" points="408.4 188.78 408.4 191.35 408.4 196.66 408.4 201.01 408.4 205.74"/>
  </g>
  <path class="cls-3" d="m221.38,196.14c-3.76-5.88-10.54-10.13-19.72-12.87-34.92-10.46-104.53.78-174.31,26.01v-4.6c28.07-8.82,132.26-41.99,174.49-29.19,6.18,1.87,11.04,4.73,14.13,8.79,1.6,2.1,3.52,4.61,4.59,7.62,0,.12,0,.24,0,.37v-.34c.46,1.31.77,2.71.81,4.21h0Z"/>
  <path class="cls-1" d="m221.38,196.14s0,0,0,.02c.2.31.39.62.57.94"/>
  <path class="cls-3" d="m410.6,206.44c-.56-.17-1.3-.41-2.2-.7-20.29-6.59-123.62-42.39-167.08-30.9-6.95,1.83-12.36,4.88-15.67,9.44-2.01,2.78-3.38,6.25-3.61,10.66-.04.47-.05.95-.05,1.44v-1.36l-.03-5.95-.02-3.76-.04-7.82-.68-154.61c4.17-5.76,11.72-8.9,21.45-10.11,2.46-.31,5.06-.49,7.77-.56h0c11.27-.31,24.61,1.3,38.69,4.05,49.42,9.58,107.86,32.98,117.23,35.83l3.83,139.83.15,5.36.12,4.39.13,4.77h0Z"/>
  <path class="cls-3" d="m221.39,196.04v.49c0-.13,0-.26,0-.39-.04-1.5-.35-2.9-.81-4.21,0,0,0-.02,0-.03-1.07-3.01-2.99-5.52-4.59-7.62-3.09-4.06-7.95-6.92-14.13-8.79-42.23-12.8-146.42,20.37-174.49,29.19-2.58.81-4.52,1.42-5.71,1.76l.14-4.87.13-4.35.16-5.62,4.02-139.51c9.63-2.79,68.6-25.24,119.76-35.19h.02c16.93-3.3,33-5.23,46.15-4.62h0c5,.23,9.58.83,13.62,1.86,5.86,1.49,10.58,3.89,13.82,7.38.12.12.23.25.33.37.03.02.05.05.06.07.27.3.52.61.76.92l.77,173.16h0Z"/>
  <g>
    <path class="cls-3" d="m221.76,192.48c-.07-5.17,1.39-9.14,3.68-12.23,25.06-33.75,170.79,17.2,186.12,21.76l-4.26-151.54c-15.33-4.56-161.25-62.43-186.31-28.68l.77,170.7h0Z"/>
    <path class="cls-3" d="m220.57,191.93v.34c0-.13,0-.25,0-.37-.15-4.9-3.11-8.67-5.43-11.66-2.94-3.78-7.47-6.5-13.21-8.33-44.22-14.17-160.59,23.81-180.14,29.66-.57.17-1.05.32-1.45.43l.13-4.35.16-5.62,4.17-141.57c8.99-2.56,60.94-21.87,109.48-32.4h0c23.34-5.07,45.89-8.1,62.5-6.26h.02c3.19.36,6.16.89,8.87,1.62,5.97,1.61,10.71,4.19,13.8,7.96.12.13.23.27.33.4v.11l.74,164.81.03,5.23h0Z"/>
  </g>
  <g>
    <path class="cls-3" d="m221.81,188.15c-.07-5.17,1.39-9.14,3.68-12.23,25.06-33.75,170.79,17.2,186.12,21.76l-4.26-151.54c-15.33-4.56-161.25-62.43-186.31-28.68l.77,170.7h0Z"/>
    <path class="cls-3" d="m220.61,188.15c.07-5.17-3.03-9.14-5.44-12.23-26.23-33.75-178.76,17.2-194.8,21.76l4.46-151.54c16.04-4.56,168.78-62.43,195.01-28.68l.77,170.7h0Z"/>
  </g>
  <g>
    <path class="cls-3" d="m221.4,182.71c-.07-5.17,1.39-9.14,3.68-12.23,25.06-33.75,170.79,17.2,186.12,21.76l-4.26-151.54c-15.33-4.56-161.25-62.43-186.31-28.68l.77,170.7h0Z"/>
    <path class="cls-3" d="m220.2,182.71c.07-5.17-3.03-9.14-5.44-12.23-26.23-33.75-178.76,17.2-194.8,21.76l4.46-151.54c16.04-4.56,168.78-62.43,195.01-28.68l.77,170.7h0Z"/>
  </g>
  <g>
    <g class="cls-7">
      <text class="cls-6" transform="translate(42.91 80.39) rotate(-19.07) scale(.97 1)"><tspan x="0" y="0">B</tspan></text>
    </g>
    <g class="cls-7">
      <text class="cls-6" transform="translate(65.38 72.6) rotate(-18.01) scale(.97 1)"><tspan x="0" y="0">u</tspan></text>
    </g>
    <g class="cls-7">
      <text class="cls-6" transform="translate(88.02 65.23) rotate(-16.55) scale(.97 1)"><tspan x="0" y="0">u</tspan></text>
    </g>
    <g class="cls-7">
      <text class="cls-6" transform="translate(110.84 58.49) rotate(-14.97) scale(.97 1)"><tspan x="0" y="0">r</tspan></text>
    </g>
    <g class="cls-7">
      <text class="cls-6" transform="translate(126.49 54.31) rotate(-13.44) scale(.97 1)"><tspan x="0" y="0">t</tspan></text>
    </g>
    <g class="cls-7">
      <text class="cls-6" transform="translate(40.32 118.93) rotate(-19.07) scale(.97 1)"><tspan x="0" y="0">B</tspan></text>
    </g>
    <g class="cls-7">
      <text class="cls-6" transform="translate(62.8 111.15) rotate(-18.07) scale(.97 1)"><tspan x="0" y="0">o</tspan></text>
    </g>
    <g class="cls-7">
      <text class="cls-6" transform="translate(83.22 104.49) rotate(-16.86) scale(.97 1)"><tspan x="0" y="0">e</tspan></text>
    </g>
    <g class="cls-7">
      <text class="cls-6" transform="translate(101.81 98.83) rotate(-15.32) scale(.97 1)"><tspan x="0" y="0">k</tspan></text>
    </g>
    <g class="cls-7">
      <text class="cls-6" transform="translate(121.48 93.42) rotate(-13.42) scale(.97 1)"><tspan x="0" y="0">e</tspan></text>
    </g>
    <g class="cls-7">
      <text class="cls-6" transform="translate(140.2 88.85) rotate(-10.47) scale(.97 1)"><tspan x="0" y="0">n</tspan></text>
    </g>
    <g class="cls-7">
      <text class="cls-6" transform="translate(40.14 160.27) rotate(-19.07) scale(.97 1)"><tspan x="0" y="0">B</tspan></text>
    </g>
    <g class="cls-7">
      <text class="cls-6" transform="translate(62.67 152.51) rotate(-18.3) scale(.97 1)"><tspan x="0" y="0">i</tspan></text>
    </g>
    <g class="cls-7">
      <text class="cls-6" transform="translate(74.25 148.65) rotate(-17.44) scale(.97 1)"><tspan x="0" y="0">e</tspan></text>
    </g>
    <g class="cls-7">
      <text class="cls-6" transform="translate(92.76 142.79) rotate(-15.98) scale(.97 1)"><tspan x="0" y="0">b</tspan></text>
    </g>
  </g>
</svg>